<svg width="900" height="220" viewBox="0 0 900 220" xmlns="http://www.w3.org/2000/svg">
  <defs>
    <linearGradient id="bg2" x1="0%" y1="0%" x2="100%" y2="100%">
      <stop offset="0%" stop-color="#0f172a"/>
      <stop offset="55%" stop-color="#0891b2"/>
      <stop offset="100%" stop-color="#34d399"/>
    </linearGradient>
  </defs>

  <g transform="translate(10,10) scale(0.39)">
    <rect x="8" y="8" width="496" height="496" rx="120" fill="url(#bg2)"/>
    <path d="M 150 330 a 46 46 0 1 0 -0.1 0 Z"
          fill="none" stroke="#ffffff" stroke-width="18" stroke-linecap="round"/>
    <path d="M 150 284 L 150 210 Q 150 150 208 150 L 260 150 Q 316 150 316 206
             L 316 236 L 292 236 L 276 202 L 250 268 L 226 216 L 210 236 L 178 236"
          fill="none" stroke="#ffffff" stroke-width="18" stroke-linecap="round" stroke-linejoin="round"/>
    <circle cx="276" cy="202" r="15" fill="#ffffff"/>
    <circle cx="276" cy="202" r="26" fill="none" stroke="#ffffff" stroke-width="5" opacity="0.55"/>
  </g>

  <text x="235" y="102" font-family="'Segoe UI', Inter, Arial, sans-serif" font-size="56"
        font-weight="700" fill="#0f172a">Symptom</text>
  <text x="235" y="160" font-family="'Segoe UI', Inter, Arial, sans-serif" font-size="56"
        font-weight="700" fill="#0891b2">Scribe</text>
</svg>
